<ttFont>
          <CharString index="0">
            -99 callsubr
            -102 callsubr
          </CharString>
          <CharString index="1">
            341 58 callsubr
            -64 callsubr
            202 93 142 208 211 -83 131 -199 hvcurveto
            -14 -92 rmoveto
            138 30 -125 -135 -142 -37 -106 -116 -65 callsubr
            hvcurveto
            return
          </CharString>
          <CharString index="2">
            35 237 rmoveto
            -146 62 -98 154 64 callsubr
            vhcurveto
            -30 71 rlineto
            -47 callsubr
            176 2 111 -32 callsubr
            -136 -105 -95 -178 vhcurveto
            232 195 rmoveto
            37 25 -57 callsubr
            return
          </CharString>
          <CharString index="3">
            -79 callsubr
            153 75 115 150 159 -66 96 -153 hvcurveto
            -84 callsubr
            return
          </CharString>
          <CharString index="4">
            -5 hmoveto
            -74 callsubr
            -261 677 rlineto
            -94 hlineto
            -46 -412 -72 callsubr
            return
          </CharString>
          <CharString index="5">
            200 hmoveto
            36 -22 27 -39 -42 -22 -28 -37 -34 22 -28 39 42 22 28 36 vhcurveto
            endchar
          </CharString>
          <CharString index="6">
            -38 callsubr
            53 -21 241 -20 -34 callsubr
            hintmask 10111101
            -97 callsubr
            hintmask 01111101
            -68 callsubr
            hintmask 10111110
            -94 callsubr
            return
          </CharString>
          <CharString index="7">
            -25 callsubr
            44 callsubr
            118 82 callsubr
            hintmask 11100110
            -105 callsubr
            hintmask 00011000
            return
          </CharString>
          <CharString index="8">
            rmoveto
            36 -22 27 -39 -41 -22 -28 -37 -34 22 -28 38 42 22 28 36 vhcurveto
            return
          </CharString>
          <CharString index="9">
            -1 callsubr
            53 -45 callsubr
            -8 callsubr
            hintmask 11001100
            -106 callsubr
            hintmask 00110000
            return
          </CharString>
          <CharString index="10">
            467 477 rmoveto
            2 -9 -104 27 -80 -89 callsubr
            return
          </CharString>
          <CharString index="11">
            60 49 callsubr
            -428 vlineto
            -138 62 -117 188 198 67 117 138 vhcurveto
            428 -119 -419 vlineto
            -108 -43 -64 -90 -89 -56 48 124 vhcurveto
            419 vlineto
            return
          </CharString>
          <CharString index="12">
            rmoveto
            -69 callsubr
            43 -58 rlineto
            71 36 66 -42 callsubr
            -46 -47 -17 callsubr
            return
          </CharString>
          <CharString index="13">
            -229 -167 rmoveto
            -73 -7 85 -81 callsubr
            -99 -66 vhcurveto
            return
          </CharString>
          <CharString index="14">
            -21 callsubr
            81 -21 241 24 callsubr
            hintmask 10111110
            -86 callsubr
            hintmask 01111110
            -66 callsubr
            return
          </CharString>
          <CharString index="15">
            -4 rmoveto
            47 24 14 0 hvcurveto
            -12 72 rlineto
            0 -16 -2 -10 -19 -9 9 30 vhcurveto
            379 -114 -389 vlineto
            -66 39 -47 70 vhcurveto
            return
          </CharString>
          <CharString index="16">
            hintmask 11100000
            -103 callsubr
            return
          </CharString>
          <CharString index="17">
            128 -6 92 591 -31 callsubr
            60 118 278 119 hintmask 11001100
            -96 callsubr
            hintmask 00110000
            return
          </CharString>
          <CharString index="18">
            hhcurveto
            -85 callsubr
            85 49 41 80 22 hvcurveto
            return
          </CharString>
          <CharString index="19">
            25 callsubr
            82 -21 210 -20 hstemhm
            -91 callsubr
            hintmask 00011000
            return
          </CharString>
          <CharString index="20">
            159 -92 callsubr
            return
          </CharString>
          <CharString index="21">
            361 254 rmoveto
            -106 -62 -70 -59 38 callsubr
            330 -49 callsubr
            71 71 31 78 36 vhcurveto
            return
          </CharString>
          <CharString index="22">
            -142 -97 -112 -152 -150 59 -98 125 return
          </CharString>
          <CharString index="23">
            -10 -84 rmoveto
            86 20 -81 -100 -96 -18 -75 -77 -86 -20 81 99 97 18 75 77 hvcurveto
            return
          </CharString>
          <CharString index="24">
            hintmask 11001000
            -87 callsubr
            return
          </CharString>
          <CharString index="25">
            0 vvcurveto
            89 36 rlineto
            0 -48 55 158 vvcurveto
            return
          </CharString>
          <CharString index="26">
            -78 callsubr
            -98 -49 return
          </CharString>
          <CharString index="27">
            rmoveto
            -1 -1 75 33 80 58 79 -58 76 -33 -1 1 44 53 rcurveline
            -198 157 -198 -157 rlineto
            endchar
          </CharString>
          <CharString index="28">
            -61 callsubr
            -158 66 -96 153 return
          </CharString>
          <CharString index="29">
            -30 callsubr
            21 32 -7 -4 13 hvcurveto
            -144 vlineto
            return
          </CharString>
          <CharString index="30">
            rmoveto
            -1 69 38 66 77 hvcurveto
            -65 75 70 -39 -1 hhcurveto
            43 54 -187 187 -188 -187 rlineto
            endchar
          </CharString>
          <CharString index="31">
            70 hmoveto
            417 -70 callsubr
            -402 hlineto
            return
          </CharString>
          <CharString index="32">
            -26 callsubr
            62 -21 210 56 callsubr
            hintmask 11100100
            -76 callsubr
            hintmask 00011000
            return
          </CharString>
          <CharString index="33">
            118 hlineto
            64 177 rlineto
            244 hlineto
            62 -177 rlineto
            127 hlineto
            return
          </CharString>
          <CharString index="34">
            49 55 -20 49 hhcurveto
            45 35 23 0 hvcurveto
            74 vlineto
            0 -35 -14 -45 vhcurveto
            return
          </CharString>
          <CharString index="35">
            rmoveto
            41 116 32 104 18 59 16 -55 32 -105 42 -119 rrcurveto
            return
          </CharString>
          <CharString index="36">
            -20 hstemhm
            50 114 -83 callsubr
            hintmask 00110000
            return
          </CharString>
          <CharString index="37">
            90 -298 217 218 hlineto
            15 91 rlineto
            -233 189 283 90 return
          </CharString>
          <CharString index="38">
            1 -25 18 -34 -39 vvcurveto
            -36 -14 -40 -52 -38 vhcurveto
            return
          </CharString>
          <CharString index="39">
            5 -81 46 -42 -82 callsubr
            return
          </CharString>
          <CharString index="40">
            -20 callsubr
            hintmask 11100110
            -73 callsubr
            hintmask 11001110
            -52 callsubr
          </CharString>
          <CharString index="41">
            9 -73 41 -38 -82 callsubr
            257 -114 vlineto
            return
          </CharString>
          <CharString index="42">
            -138 -30 120 135 143 37 110 116 return
          </CharString>
          <CharString index="43">
            -203 -93 -147 -209 -212 83 -124 200 return
          </CharString>
          <CharString index="44">
            rmoveto
            0 118 72 79 98 vhcurveto
            -76 71 -170 -189 rlineto
            endchar
          </CharString>
          <CharString index="45">
            rmoveto
            -1 159 43 85 93 hvcurveto
            -52 82 -227 -152 rlineto
            endchar
          </CharString>
          <CharString index="46">
            263 510 rmoveto
            -153 -75 -115 -151 return
          </CharString>
          <CharString index="47">
            -95 callsubr
            200 hmoveto
            -36 callsubr
          </CharString>
          <CharString index="48">
            477 498 rmoveto
            -117 -271 hlineto
            -86 -68 -62 -52 38 callsubr
            329 -49 callsubr
            68 67 28 70 37 vhcurveto
            return
          </CharString>
          <CharString index="49">
            -95 callsubr
            endchar
          </CharString>
          <CharString index="50">
            -25 -39 -47 -49 -56 -127 -5 hvcurveto
            82 2 24 90 88 hhcurveto
            return
          </CharString>
          <CharString index="51">
            210 57 callsubr
            254 hlineto
            213 423 rlineto
            -126 hlineto
            -145 -307 -142 307 rlineto
            -129 hlineto
            210 -418 rlineto
            return
          </CharString>
          <CharString index="52">
            13 -33 7 -33 -33 vvcurveto
            -70 -32 -50 -74 -51 -56 24 15 -38 vhcurveto
            -28 -87 rlineto
            -9 15 88 -33 80 -3 callsubr
            return
          </CharString>
          <CharString index="53">
            rmoveto
            -227 152 -52 -82 rlineto
            -85 93 159 -43 -1 hhcurveto
            endchar
          </CharString>
          <CharString index="54">
            rmoveto
            -170 189 -76 -71 rlineto
            79 -98 119 -72 65 callsubr
          </CharString>
          <CharString index="55">
            -49 -55 20 -49 hhcurveto
            -45 -34 -23 0 hvcurveto
            endchar
          </CharString>
          <CharString index="56">
            -248 21 -21 677 -31 callsubr
            70 119 hintmask 11001000
            -37 callsubr
            hintmask 00110000
            return
          </CharString>
          <CharString index="57">
            -9 callsubr
            82 -21 241 -71 callsubr
            return
          </CharString>
          <CharString index="58">
            -114 -332 vlineto
            -106 41 -66 105 return
          </CharString>
          <CharString index="59">
            488 hmoveto
            334 vlineto
            105 -43 67 -103 -72 -71 -33 -80 -35 vhcurveto
            -11 71 -38 37 -41 callsubr
            247 vlineto
            105 61 64 60 48 18 -37 -56 vhcurveto
            -323 vlineto
            return
          </CharString>
          <CharString index="60">
            0 -84 -35 -58 -79 -25 51 62 -7 vhcurveto
            return
          </CharString>
          <CharString index="61">
            457 59 callsubr
            706 -58 callsubr
          </CharString>
          <CharString index="62">
            -21 210 -20 hstemhm
            return
          </CharString>
          <CharString index="63">
            473 323 rmoveto
            -31 3 -46 3 -43 vhcurveto
            -26 40 -29 46 -26 38 -235 352 rcurveline
            -93 -679 119 hlineto
            -3 354 rlineto
            42 -4 49 -4 43 vhcurveto
            26 -41 33 -54 25 -38 rrcurveto
            return
          </CharString>
          <CharString index="64">
            rmoveto
            -50 -47 -77 -27 1 1 35 -63 rcurveline
            24 11 23 16 21 20 rrcurveto
            -252 82 341 vlineto
            return
          </CharString>
          <CharString index="65">
            70 108 vvcurveto
            43 -21 31 return
          </CharString>
          <CharString index="66">
            -39 callsubr
            -252 114 return
          </CharString>
          <CharString index="67">
            vstem
            152 452 rmoveto
            22 callsubr
            53 38 vhcurveto
            -43 58 rlineto
            -71 -36 -66 -70 -108 vvcurveto
            -43 21 -31 46 47 17 17 1 1 vhcurveto
            return
          </CharString>
          <CharString index="68">
            0 vvcurveto
            -90 -36 rlineto
            0 49 -54 -159 vvcurveto
            return
          </CharString>
          <CharString index="69">
            29 -6 80 -61 -21 434 80 return
          </CharString>
          <CharString index="70">
            70 57 callsubr
            677 74 callsubr
            return
          </CharString>
          <CharString index="71">
            -69 callsubr
            42 -58 rlineto
            71 36 67 -42 callsubr
            -47 -46 -17 callsubr
            endchar
          </CharString>
          <CharString index="72">
            rmoveto
            -49 -26 -34 -43 -40 -33 callsubr
            return
          </CharString>
          <CharString index="73">
            33 callsubr
            -92 92 return
          </CharString>
          <CharString index="74">
            26 -34 46 50 -19 callsubr
            -47 hvcurveto
            return
          </CharString>
          <CharString index="75">
            82 96 vvcurveto
            80 -48 62 -119 return
          </CharString>
          <CharString index="76">
            -20 82 -45 callsubr
            return
          </CharString>
          <CharString index="77">
            93 101 29 73 100 return
          </CharString>
          <CharString index="78">
            -21 241 -20 return
          </CharString>
          <CharString index="79">
            -28 84 rlineto
            -2 -9 -56 -24 -61 hhcurveto
            -128 -35 115 140 141 40 112 114 46 34 -19 -34 32 hvcurveto
            endchar
          </CharString>
          <CharString index="80">
            23 callsubr
            48 -54 rlineto
            0 137 119 77 98 vhcurveto
            -77 98 -137 119 65 callsubr
          </CharString>
          <CharString index="81">
            6 0 90 217 91 189 90 return
          </CharString>
          <CharString index="82">
            -34 -7 82 113 72 172 78 return
          </CharString>
          <CharString index="83">
            -29 callsubr
            hstemhm
            return
          </CharString>
          <CharString index="84">
            124 75 125 return
          </CharString>
          <CharString index="85">
            -28 72 rlineto
            -4 -13 -48 -16 -37 hhcurveto
            -47 -63 21 156 156 64 14 41 34 18 -19 -22 20 hvcurveto
            endchar
          </CharString>
          <CharString index="86">
            42 -6 84 -65 -21 506 -20 return
          </CharString>
          <CharString index="87">
            rmoveto
            0 34 14 45 vhcurveto
            return
          </CharString>
          <CharString index="88">
            26 34 42 44 -26 31 return
          </CharString>
          <CharString index="89">
            98 21 -21 177 88 return
          </CharString>
          <CharString index="90">
            -18 -17 -1 -1 vhcurveto
            return
          </CharString>
          <CharString index="91">
            -90 11 callsubr
            -10 -126 rmoveto
            119 hlineto
            318 855 rlineto
            74 callsubr
            endchar
          </CharString>
          <CharString index="92">
            66 -104 hvcurveto
            -6 -71 rmoveto
            47 9 -48 -60 -60 -9 -44 -41 -46 -9 48 60 60 9 44 40 hvcurveto
            return
          </CharString>
          <CharString index="93">
            21 0 callsubr
            return
          </CharString>
          <CharString index="94">
            21 80 -2 82 hhcurveto
            239 108 122 223 221 -109 115 -225 hvcurveto
            return
          </CharString>
          <CharString index="95">
            rlineto
            39 53 -13 -31 20 callsubr
            hvcurveto
            -16 -54 rlineto
            -9 23 31 -8 return
          </CharString>
          <CharString index="96">
            56 1 21 callsubr
            -32 -16 -20 -28 -27 -16 23 30 vhcurveto
            endchar
          </CharString>
          <CharString index="97">
            26 -34 47 49 -19 callsubr
            -46 hvcurveto
            return
          </CharString>
          <CharString index="98">
            -262 -4 84 418 -20 return
          </CharString>
          <CharString index="99">
            45 129 321 128 return
          </CharString>
          <CharString index="100">
            -24 callsubr
            35 return
          </CharString>
          <CharString index="101">
            10 -10 84 352 84 return
          </CharString>
          <CharString index="102">
            83 -63 63 -63 83 hstemhm
            return
          </CharString>
          <CharString index="103">
            rmoveto
            -50 -26 -34 -43 -40 -10 callsubr
            endchar
          </CharString>
          <CharString index="104">
            hhcurveto
            122 78 70 140 hvcurveto
            return
          </CharString>
          <CharString index="105">
            16 callsubr
            96 114 return
          </CharString>
          <CharString index="106">
            -6 92 508 92 return
          </CharString>
          <CharString index="107">
            -21 677 -20 return
          </CharString>
          <CharString index="108">
            70 119 return
          </CharString>
          <CharString index="109">
            -14 callsubr
            hstem
            1 callsubr
            vstem
            -37 callsubr
            return
          </CharString>
          <CharString index="110">
            rmoveto
            160 59 -103 -155 -162 -64 -83 -139 -44 -20 0 1 -15 hvcurveto
            return
          </CharString>
          <CharString index="111">
            rmoveto
            35 -21 25 -37 -40 -21 -27 8 callsubr
            return
          </CharString>
          <CharString index="112">
            503 614 rmoveto
            37 -32 -49 35 -80 hhcurveto
            -200 -95 -146 -210 return
          </CharString>
          <CharString index="113">
            -124 278 83 hstem
            50 278 rmoveto
            283 83 -283 hlineto
            endchar
          </CharString>
          <CharString index="114">
            31 -217 90 121 85 419 -20 return
          </CharString>
          <CharString index="115">
            -36 -32 21 -27 37 40 21 27 35 vhcurveto
            return
          </CharString>
          <CharString index="116">
            8 -243 rlineto
            80 hlineto
            8 243 rlineto
            return
          </CharString>
          <CharString index="117">
            39 callsubr
            114 return
          </CharString>
          <CharString index="118">
            -105 -21 855 -20 hstem
            return
          </CharString>
          <CharString index="119">
            19 callsubr
            126 hintmask 11101100
            70 57 callsubr
            return
          </CharString>
          <CharString index="120">
            399 442 rmoveto
            42 -30 -43 26 -62 hhcurveto
            -129 -100 -97 -176 return
          </CharString>
          <CharString index="121">
            rmoveto
            34 callsubr
            -47 54 rlineto
            0 -138 -119 return
          </CharString>
          <CharString index="122">
            28 callsubr
            195 114 return
          </CharString>
          <CharString index="123">
            -21 288 -20 hstem
            return
          </CharString>
          <CharString index="124">
            89 vstem
            50 49 callsubr
            9 callsubr
            return
          </CharString>
          <CharString index="125">
            -15 -24 -41 -45 27 0 vhcurveto
            -26 -61 rlineto
            -20 37 44 -14 34 hhcurveto
            return
          </CharString>
          <CharString index="126">
            85 -2 56 callsubr
            194 return
          </CharString>
          <CharString index="127">
            -20 -14 -11 -36 -23 -26 8 5 -15 return
          </CharString>
          <CharString index="128">
            rmoveto
            31 16 18 27 28 16 -20 -30 return
          </CharString>
          <CharString index="129">
            -1 25 -18 34 39 vvcurveto
            36 14 40 return
          </CharString>
          <CharString index="130">
            rmoveto
            130 -163 -130 -163 return
          </CharString>
          <CharString index="131">
            -20 hstemhm
            60 10 callsubr
            return
          </CharString>
          <CharString index="132">
            -18 callsubr
            412 -20 return
          </CharString>
          <CharString index="133">
            hlineto
            hintmask 10100000
            -18 -143 rlineto
            79 hlineto
            hintmask 01100000
            18 143 rlineto
            return
          </CharString>
          <CharString index="134">
            149 89 -149 152 -94 -152 -149 hlineto
            endchar
          </CharString>
          <CharString index="135">
            35 123 return
          </CharString>
          <CharString index="136">
            hintmask 11011100
            138 hmoveto
            94 hlineto
            273 587 rlineto
            -93 hlineto
            return
          </CharString>
          <CharString index="137">
            1 16 22 0 29 hhcurveto
            98 29 return
          </CharString>
          <CharString index="138">
            -7 callsubr
            123 return
          </CharString>
          <CharString index="139">
            58 -41 42 -57 -58 -43 -43 -57 return
          </CharString>
          <CharString index="140">
            hstemhm
            15 callsubr
            return
          </CharString>
          <CharString index="141">
            -130 163 130 163 return
          </CharString>
          <CharString index="142">
            -7 559 -29 callsubr
            hstem
            return
          </CharString>
          <CharString index="143">
            hlineto
            274 587 rlineto
            -94 hlineto
            return
          </CharString>
          <CharString index="144">
            49 -21 434 -20 hstem
            return
          </CharString>
          <CharString index="145">
            -48 -18 35 55 vhcurveto
            return
          </CharString>
          <CharString index="146">
            114 187 return
          </CharString>
          <CharString index="147">
            63 19 73 hvcurveto
            hintmask 01111100
            49 -38 26 -52 4 vhcurveto
            9 return
          </CharString>
          <CharString index="148">
            142 97 112 152 150 -59 98 -125 return
          </CharString>
          <CharString index="149">
            114 vstem
            return
          </CharString>
          <CharString index="150">
            -198 11 callsubr
            100 109 vstem
            return
          </CharString>
          <CharString index="151">
            49 -7 callsubr
            return
          </CharString>
          <CharString index="152">
            219 79 callsubr
            return
          </CharString>
          <CharString index="153">
            -98 138 -119 0 vvcurveto
            return
          </CharString>
          <CharString index="154">
            rmoveto
            -73 -7 return
          </CharString>
          <CharString index="155">
            127 hstemhm
            return
          </CharString>
          <CharString index="156">
            677 rmoveto
            return
          </CharString>
          <CharString index="157">
            0 vvcurveto
            -71 240 70 -136 vlineto
            17 12 return
          </CharString>
          <CharString index="158">
            228 -356 rlineto
            99 678 74 callsubr
            return
          </CharString>
          <CharString index="159">
            -93 -101 -29 -73 -100 -22 -32 7 3 -12 hvcurveto
            return
          </CharString>
          <CharString index="160">
            -13 -14 -42 -58 -4 -37 -11 hvcurveto
            21 -52 rlineto
            return
          </CharString>
          <CharString index="161">
            152 20 -21 22 0 callsubr
            22 -20 return
          </CharString>
          <CharString index="162">
            -79 rlineto
            81 41 96 46 161 vvcurveto
            endchar
          </CharString>
          <CharString index="163">
            -20 83 callsubr
            return
          </CharString>
          <CharString index="164">
            hmoveto
            119 return
          </CharString>
          <CharString index="165">
            686 rmoveto
            return
          </CharString>
          <CharString index="166">
            -2 callsubr
            vstem
            77 return
          </CharString>
          <CharString index="167">
            434 18 249 21 hstem
            20 113 return
          </CharString>
          <CharString index="168">
            80 -31 49 1 80 vhcurveto
            return
          </CharString>
          <CharString index="169">
            -53 -128 -2 -20 hhcurveto
            return
          </CharString>
          <CharString index="170">
            -218 58 -58 171 return
          </CharString>
          <CharString index="171">
            101 87 46 0 return
          </CharString>
          <CharString index="172">
            0 vvcurveto
            endchar
          </CharString>
          <CharString index="173">
            47 callsubr
            85 -30 callsubr
            return
          </CharString>
          <CharString index="174">
            hstem
            28 callsubr
            201 123 vstem
            return
          </CharString>
          <CharString index="175">
            -138 -186 88 730 88 hstemhm
            return
          </CharString>
          <CharString index="176">
            -124 -170 -21 917 -20 hstem
            return
          </CharString>
          <CharString index="177">
            -143 -192 87 742 87 hstemhm
            return
          </CharString>
          <CharString index="178">
            39 vlineto
            10 62 rlineto
            -49 hlineto
            endchar
          </CharString>
          <CharString index="179">
            vmoveto
            500 83 -500 hlineto
            endchar
          </CharString>
          <CharString index="180">
            -84 hvcurveto
            -77 hlineto
            endchar
          </CharString>
          <CharString index="181">
            -119 hlineto
            return
          </CharString>
          <CharString index="182">
            -52 111 -21 416 -20 hstem
            return
          </CharString>
          <CharString index="183">
            hlineto
            -90 -218 rlineto
            -39 157 return
          </CharString>
          <CharString index="184">
            vlineto
            98 49 99 66 vhcurveto
            endchar
          </CharString>
          <CharString index="185">
            vlineto
            12 21 1 30 hhcurveto
            endchar
          </CharString>
          <CharString index="186">
            -20 hstem
            65 114 return
          </CharString>
          <CharString index="187">
            -35 -56 vhcurveto
            -326 return
          </CharString>
          <CharString index="188">
            rmoveto
            -83 -20 rlineto
            -92 return
          </CharString>
          <CharString index="189">
            176 114 return
          </CharString>
          <CharString index="190">
            hstemhm
            1 callsubr
            return
          </CharString>
        <CharString name=".notdef">
          -234 endchar
        </CharString>
        <CharString name="A">
          25 callsubr
          hstem
          -103 callsubr
          endchar
        </CharString>
        <CharString name="AE">
          369 0 90 87 88 42 91 189 90 hstem
          435 117 vstem
          435 hmoveto
          415 -70 callsubr
          -430 hlineto
          -410 -677 rlineto
          138 hlineto
          101 177 rlineto
          201 hlineto
          378 vmoveto
          -290 -151 vlineto
          53 102 82 154 16 34 rrcurveto
          endchar
        </CharString>
        <CharString name="Aacute">
          -88 callsubr
          -91 453 -62 callsubr
        </CharString>
        <CharString name="Acircumflex">
          -88 callsubr
          -244 453 -80 callsubr
        </CharString>
        <CharString name="Adieresis">
          25 callsubr
          90 48 callsubr
          140 -23 callsubr
          -91 callsubr
          hintmask 00011100
          -126 546 -107 callsubr
        </CharString>
        <CharString name="Agrave">
          -88 callsubr
          -66 511 -54 callsubr
        </CharString>
        <CharString name="Aring">
          -18 callsubr
          361 49 2 -20 120 50 hstemhm
          202 56 87 56 hintmask 11101110
          202 727 rmoveto
          -35 15 -30 25 -18 vhcurveto
          -247 -644 rlineto
          -74 callsubr
          -249 645 rlineto
          24 18 16 30 34 vvcurveto
          32 callsubr
          vhcurveto
          7 -462 -72 callsubr
          -132 463 21 callsubr
          vhcurveto
          hintmask 11011110
          -27 -11 -18 -20 -5 vhcurveto
          -27 hlineto
          -19 6 -10 20 25 vvcurveto
          endchar
        </CharString>
        <CharString name="Atilde">
          25 callsubr
          97 -5 callsubr
          hintmask 11101000
          -103 callsubr
          -253 495 -20 callsubr
          hintmask 11110000
          -73 callsubr
          hintmask 11100100
          -52 callsubr
        </CharString>
        <CharString name="B">
          58 -1 86 -64 -21 304 85 205 19 callsubr
          125 -106 127 hintmask 01110110
          70 hmoveto
          hintmask 10110101
          23 102 -1 72 hhcurveto
          176 86 76 115 73 -44 59 -79 30 hvcurveto
          hintmask 10110110
          63 32 39 54 65 vvcurveto
          111 -83 65 -154 vhcurveto
          hintmask 01101101
          62 callsubr
          119 -374 rmoveto
          1 18 25 0 32 hhcurveto
          107 31 -56 -56 hvcurveto
          hintmask 10110110
          -61 -36 -46 -91 vhcurveto
          -86 hlineto
          508 vmoveto
          30 callsubr
          -53 -52 -56 -33 -44 73 callsubr
        </CharString>
        <CharString name="C">
          16 -1 callsubr
          hstem
          47 129 vstem
          5 callsubr
          -218 91 -118 178 103 75 35 -1 -1 hvcurveto
          -28 callsubr
        </CharString>
        <CharString name="Ccedilla">
          16 63 callsubr
          42 91 508 92 hstemhm
          47 129 180 74 hintmask 10111100
          5 callsubr
          -204 81 -117 156 -13 hvcurveto
          -20 -81 -12 callsubr
          33 hhcurveto
          54 40 callsubr
          42 rlineto
          6 85 60 27 -1 hhcurveto
          -28 callsubr
        </CharString>
        <CharString name="D">
          136 -2 89 -66 -21 590 89 -2 56 callsubr
          282 129 hintmask 01101100
          70 hmoveto
          hintmask 10101100
          -13 callsubr
          hintmask 01011100
          -62 -114 -2 -20 hhcurveto
          hintmask 10101100
          182 -87 3 callsubr
          501 78 callsubr
        </CharString>
        <CharString name="E">
          -26 callsubr
          hstem
          1 callsubr
          vstem
          -76 callsubr
          endchar
        </CharString>
        <CharString name="Eacute">
          -75 callsubr
          213 41 -62 callsubr
        </CharString>
        <CharString name="Ecircumflex">
          -75 callsubr
          59 41 -80 callsubr
        </CharString>
        <CharString name="Edieresis">
          -26 callsubr
          70 127 83 callsubr
          -95 -23 callsubr
          hintmask 11101000
          -76 callsubr
          hintmask 00010110
          148 134 -107 callsubr
        </CharString>
        <CharString name="Egrave">
          -75 callsubr
          237 99 -54 callsubr
        </CharString>
        <CharString name="Eth">
          136 303 88 hstem
          70 hmoveto
          -13 callsubr
          -62 -114 -2 -20 hhcurveto
          -286 -70 -88 70 vlineto
          182 287 3 callsubr
          215 180 88 -180 198 78 callsubr
        </CharString>
        <CharString name="Euro">
          47 -6 89 103 88 61 89 130 89 hstem
          35 169 vstem
          35 424 rmoveto
          -89 48 vlineto
          -1 -9 0 -8 -9 vvcurveto
          -12 0 -12 1 -11 vhcurveto
          -48 -88 60 hlineto
          -126 33 86 -66 110 hhcurveto
          96 72 33 -1 -2 hvcurveto
          -25 82 rlineto
          -2 -9 -53 -23 -58 hhcurveto
          -58 -40 40 63 -23 hvcurveto
          174 hlineto
          15 88 rlineto
          -206 hlineto
          -2 14 -1 12 9 13 1 7 6 vvcurveto
          213 hlineto
          15 89 rlineto
          -216 hlineto
          77 19 42 53 58 hhcurveto
          44 32 -18 -32 29 hvcurveto
          57 71 rlineto
          35 -29 -46 33 -75 hhcurveto
          -127 -93 -86 -133 -33 hvcurveto
          endchar
        </CharString>
        <CharString name="F">
          -19 21 -21 302 90 195 90 hstem
          1 callsubr
          vstem
          70 57 callsubr
          302 218 hlineto
          15 90 rlineto
          -233 195 283 90 -402 hlineto
          endchar
        </CharString>
        <CharString name="G">
          98 -202 -21 215 93 509 92 hstemhm
          43 129 266 117 -105 105 hintmask 11111000
          377 -223 rmoveto
          82 41 96 47 162 vvcurveto
          301 -117 -91 vlineto
          -95 -72 -57 -62 -95 -37 103 151 141 39 114 114 52 54 -21 -34 34 vhcurveto
          58 76 rlineto
          36 -34 -61 35 -89 hhcurveto
          -202 -94 -149 -208 -202 71 -135 167 hvcurveto
          hintmask 11110100
          77 62 31 56 30 hvcurveto
          -14 vlineto
          -65 1 -85 -120 -59 vhcurveto
          endchar
        </CharString>
        <CharString name="H">
          150 21 -21 308 87 282 -20 hstem
          1 callsubr
          279 119 vstem
          468 57 callsubr
          677 -119 -282 -279 282 -119 -677 119 308 279 hlineto
          endchar
        </CharString>
        <CharString name="I">
          -248 2 callsubr
          endchar
        </CharString>
        <CharString name="Iacute">
          -51 callsubr
          60 41 -62 callsubr
        </CharString>
        <CharString name="Icircumflex">
          -51 callsubr
          -94 41 -80 callsubr
        </CharString>
        <CharString name="Idieresis">
          -248 -14 callsubr
          90 48 callsubr
          -32 124 -22 119 -22 125 hintmask 11001000
          -37 callsubr
          hintmask 00110100
          22 134 -107 callsubr
        </CharString>
        <CharString name="Igrave">
          -51 callsubr
          84 99 -54 callsubr
        </CharString>
        <CharString name="J">
          -248 -202 -21 900 -20 hstem
          1 callsubr
          vstem
          189 49 callsubr
          -119 -664 hlineto
          -42 0 -63 -105 -52 vhcurveto
          47 55 callsubr
        </CharString>
        <CharString name="K">
          84 2 callsubr
          469 hmoveto
          -117 hlineto
          -36 -153 -61 -106 -123 -45 rrcurveto
          -7 vlineto
          258 -366 rlineto
          138 hlineto
          -246 352 84 56 60 69 43 200 rlinecurve
          endchar
        </CharString>
        <CharString name="L">
          -65 0 90 587 -20 hstem
          1 callsubr
          vstem
          70 hmoveto
          372 90 -253 587 74 callsubr
          endchar
        </CharString>
        <CharString name="M">
          304 21 -21 679 -20 hstem
          80 98 457 98 vstem
          562 260 rmoveto
          11 28 27 71 24 66 1 -64 3 -69 1 -33 11 -259 rcurveline
          111 hlineto
          -40 679 rlineto
          -91 hlineto
          -172 -424 -13 -32 -16 -37 -13 -34 rlinecurve
          -13 35 -17 38 -12 30 -171 424 rcurveline
          -93 hlineto
          -40 -679 rlineto
          112 hlineto
          10 262 1 26 2 72 1 69 rlinecurve
          25 -68 29 -74 13 -30 113 -257 rcurveline
          84 hlineto
          endchar
        </CharString>
        <CharString name="N">
          54 callsubr
          hstemhm
          70 116 284 119 hintmask 01011100
          -44 callsubr
          hintmask 10101100
          51 callsubr
          endchar
        </CharString>
        <CharString name="Ntilde">
          54 callsubr
          103 -5 callsubr
          70 116 284 119 hintmask 0101100110000000
          -44 callsubr
          hintmask 1010010110000000
          51 callsubr
          -297 91 -20 callsubr
          hintmask 0101100110000000
          -73 callsubr
          hintmask 0101001110000000
          -52 callsubr
        </CharString>
        <CharString name="O">
          -1 callsubr
          hstem
          -8 callsubr
          vstem
          -106 callsubr
          endchar
        </CharString>
        <CharString name="OE">
          347 -6 96 -69 -21 307 91 189 90 9 -20 hstemhm
          45 129 238 118 hintmask 01110110
          411 hmoveto
          418 hlineto
          hintmask 10110110
          90 -299 217 219 vlineto
          15 91 rlineto
          -234 189 284 90 -391 hlineto
          hintmask 10101110
          5 -19 -27 4 -36 hhcurveto
          -64 callsubr
          hvcurveto
          hintmask 01110110
          24 30 3 3 29 hvcurveto
          -69 86 rmoveto
          -65 callsubr
          39 28 -7 -6 18 hvcurveto
          -489 vlineto
          -3 -25 -26 -3 -19 hhcurveto
          endchar
        </CharString>
        <CharString name="Oacute">
          -98 callsubr
          4 124 -62 callsubr
        </CharString>
        <CharString name="Ocircumflex">
          -98 callsubr
          -149 124 -80 callsubr
        </CharString>
        <CharString name="Odieresis">
          -1 callsubr
          61 48 callsubr
          45 129 -2 -23 callsubr
          -1 128 hintmask 11010010
          -106 callsubr
          hintmask 00101100
          -31 217 -107 callsubr
        </CharString>
        <CharString name="Ograve">
          -98 callsubr
          29 182 -54 callsubr
        </CharString>
        <CharString name="Oslash">
          -42 -21 805 -20 hstem
          341 58 callsubr
          -203 -93 -147 -209 -136 34 -100 77 -54 hvcurveto
          -25 -63 97 -40 25 63 rlineto
          -4 23 25 -2 27 hhcurveto
          202 93 142 208 135 -35 103 -77 56 hvcurveto
          26 64 -98 40 -25 -63 rlineto
          5 -23 -24 2 -26 hhcurveto
          154 -352 rmoveto
          -142 -37 -106 -116 -19 -18 2 4 -15 vhcurveto
          172 424 rlineto
          25 -48 8 -66 -68 vvcurveto
          -168 260 rmoveto
          18 17 -3 -4 15 hvcurveto
          -171 -424 rlineto
          -25 47 -7 63 68 vvcurveto
          143 37 110 116 vhcurveto
          endchar
        </CharString>
        <CharString name="Otilde">
          -1 callsubr
          68 -5 callsubr
          -8 callsubr
          hintmask 11010110
          -106 callsubr
          -158 166 -67 callsubr
        </CharString>
        <CharString name="P">
          28 21 -21 265 89 240 12 callsubr
          265 70 hlineto
          165 85 87 123 126 -76 78 -162 hvcurveto
          hintmask 11011100
          62 callsubr
          119 -84 rmoveto
          hintmask 11101100
          30 callsubr
          -61 -62 -67 -33 -50 73 callsubr
        </CharString>
        <CharString name="Q">
          165 -214 99 -99 200 608 92 hstemhm
          43 125 330 128 hintmask 10111000
          615 -64 rmoveto
          -33 -68 -55 -18 -48 hhcurveto
          -35 -33 9 23 -31 hvcurveto
          150 27 131 151 248 vvcurveto
          211 -82 132 -200 -203 -98 -149 -202 -130 61 -148 161 -10 vhcurveto
          13 85 rlineto
          -87 20 -23 70 122 vvcurveto
          133 46 117 116 138 30 -127 -135 vhcurveto
          hintmask 01111000
          -221 -108 -125 -133 -15 -15 2 3 -16 vhcurveto
          -22 -66 rlineto
          -93 83 102 -46 86 hhcurveto
          74 67 29 37 55 hvcurveto
          endchar
        </CharString>
        <CharString name="R">
          67 21 -21 293 87 214 12 callsubr
          293 29 hlineto
          100 34 -81 -212 91 hvcurveto
          129 hlineto
          -76 177 -36 107 -75 42 rrcurveto
          88 27 36 64 77 vvcurveto
          117 -73 68 -165 vhcurveto
          hintmask 11011100
          62 callsubr
          hintmask 11101100
          119 -83 rmoveto
          67 hlineto
          98 29 -56 -59 -65 -43 -34 -74 hvcurveto
          -77 hlineto
          endchar
        </CharString>
        <CharString name="S">
          0 -6 93 506 93 hstem
          52 130 162 128 vstem
          265 58 callsubr
          -124 -89 -82 -98 -116 72 -47 120 -50 hvcurveto
          62 -25 38 -22 -60 vvcurveto
          -62 -35 -37 -70 vhcurveto
          -57 -111 64 1 hhcurveto
          -42 -92 rlineto
          -16 27 86 -49 104 hhcurveto
          146 79 102 102 111 -64 46 -106 42 hvcurveto
          -82 32 -38 34 60 vvcurveto
          48 41 22 48 vhcurveto
          62 80 -46 -1 hhcurveto
          49 86 rlineto
          13 -19 -84 40 -93 hhcurveto
          endchar
        </CharString>
        <CharString name="T">
          -14 21 -21 587 90 hstem
          181 118 vstem
          10 49 callsubr
          -90 171 -587 118 587 168 vlineto
          15 90 rlineto
          endchar
        </CharString>
        <CharString name="Thorn">
          30 21 -21 142 88 241 84 122 -20 hstem
          1 callsubr
          194 128 vstem
          70 57 callsubr
          142 70 hlineto
          168 84 83 127 129 -75 74 -165 hvcurveto
          -82 122 74 callsubr
          119 -207 rmoveto
          30 callsubr
          -60 -63 -67 -33 -51 73 callsubr
        </CharString>
        <CharString name="U">
          128 -6 92 591 -20 hstem
          60 118 278 119 vstem
          -96 callsubr
          endchar
        </CharString>
        <CharString name="Uacute">
          -90 callsubr
          140 41 -62 callsubr
        </CharString>
        <CharString name="Ucircumflex">
          -90 callsubr
          -14 41 -80 callsubr
        </CharString>
        <CharString name="Udieresis">
          128 -6 92 591 -20 90 48 callsubr
          60 118 -23 -23 callsubr
          -23 119 hintmask 11010010
          -96 callsubr
          hintmask 00101100
          101 134 -107 callsubr
        </CharString>
        <CharString name="Ugrave">
          -90 callsubr
          164 99 -54 callsubr
        </CharString>
        <CharString name="V">
          75 -14 callsubr
          hstem
          591 49 callsubr
          -121 hlineto
          -87 -244 -45 -127 -30 -96 -15 -50 rlinecurve
          -16 51 -31 99 -43 125 -84 242 rcurveline
          -127 hlineto
          253 -677 rlineto
          93 hlineto
          endchar
        </CharString>
        <CharString name="W">
          362 -14 callsubr
          hstem
          595 hmoveto
          88 hlineto
          188 677 rlineto
          -121 hlineto
          -88 -341 -16 -60 -10 -50 -5 -37 rlinecurve
          -8 37 -14 51 -18 59 -106 341 rcurveline
          -89 hlineto
          -106 -341 -18 -58 -13 -45 -9 -37 rlinecurve
          -7 37 -11 47 -15 58 -88 339 rcurveline
          74 callsubr
          188 -677 rlineto
          88 hlineto
          130 411 9 30 6 25 6 25 rlinecurve
          6 -25 8 -27 10 -28 rrcurveto
          endchar
        </CharString>
        <CharString name="X">
          75 -14 callsubr
          hstem
          137 hmoveto
          112 200 42 82 15 -31 18 -33 10 -18 rlinecurve
          112 -200 rlineto
          136 hlineto
          -210 354 191 323 rlineto
          -134 hlineto
          -96 -172 -10 -18 -17 -31 -15 -30 rlinecurve
          -15 31 -16 30 -10 19 -95 171 rcurveline
          -135 hlineto
          190 -322 -210 -355 rlineto
          endchar
        </CharString>
        <CharString name="Y">
          35 -14 callsubr
          hstem
          210 119 vstem
          -56 callsubr
          endchar
        </CharString>
        <CharString name="Yacute">
          36 21 -21 677 -31 callsubr
          210 119 hintmask 11001000
          -56 callsubr
          hintmask 00110000
          63 459 -62 callsubr
        </CharString>
        <CharString name="Ydieresis">
          36 -14 callsubr
          90 48 callsubr
          109 124 -23 119 -21 125 hintmask 11001000
          -56 callsubr
          hintmask 00110100
          23 552 -107 callsubr
        </CharString>
        <CharString name="Z">
          21 0 93 491 93 hstem
          493 hmoveto
          93 -226 vlineto
          -28 -23 -1 -1 -23 hvcurveto
          288 515 rlineto
          71 -440 vlineto
          16 -93 rlineto
          191 hlineto
          32 27 1 2 27 hvcurveto
          -294 -516 rlineto
          -71 vlineto
          endchar
        </CharString>
        <CharString name="a">
          -38 callsubr
          -34 callsubr
          hintmask 10110100
          -97 callsubr
          hintmask 01110100
          -68 callsubr
          hintmask 10111000
          -94 callsubr
          endchar
        </CharString>
        <CharString name="aacute">
          -101 callsubr
          21 464 -63 callsubr
        </CharString>
        <CharString name="acircumflex">
          -101 callsubr
          -108 464 -77 callsubr
        </CharString>
        <CharString name="acute">
          35 callsubr
          227 538 -63 callsubr
        </CharString>
        <CharString name="adieresis">
          -38 callsubr
          81 48 callsubr
          28 callsubr
          -53 -23 callsubr
          -76 114 -92 92 hintmask 1011100010000000
          -97 callsubr
          hintmask 0111100010000000
          -68 callsubr
          hintmask 1011100100000000
          -94 callsubr
          hintmask 1011011000000000
          -9 577 -107 callsubr
        </CharString>
        <CharString name="ae">
          253 -6 81 -61 -21 195 72 166 80 hstemhm
          28 callsubr
          175 117 82 callsubr
          hintmask 10111110
          274 506 rmoveto
          -85 callsubr
          74 46 31 61 25 hvcurveto
          hintmask 01111110
          -59 33 59 -34 92 hhcurveto
          64 callsubr
          hvcurveto
          -30 71 rlineto
          hintmask 10111110
          -47 callsubr
          177 2 110 -32 callsubr
          -51 -46 -13 -26 -38 vhcurveto
          14 -33 -60 21 -71 hhcurveto
          -36 -432 66 callsubr
          35 28 -10 -13 24 hvcurveto
          -26 -43 -15 -56 -67 vvcurveto
          -25 1 -23 4 -21 vhcurveto
          -56 -18 -37 -38 -45 hhcurveto
          327 358 rmoveto
          36 25 -25 -39 -47 -48 -56 -128 -5 hvcurveto
          82 2 24 90 89 hhcurveto
          endchar
        </CharString>
        <CharString name="agrave">
          -101 callsubr
          78 516 -53 callsubr
        </CharString>
        <CharString name="ampersand">
          67 -6 98 409 94 hstemhm
          35 118 -32 117 hintmask 11010000
          442 523 rmoveto
          44 -35 -47 28 -68 hhcurveto
          -123 -48 -70 -72 -30 8 -30 15 -30 hvcurveto
          hintmask 11100000
          -46 -32 -63 -64 -98 vvcurveto
          -111 91 -64 90 87 66 35 49 51 vhcurveto
          102 -83 57 76 -97 84 23 35 17 38 15 33 rlinecurve
          -84 34 -11 -26 -13 -27 -16 -26 rlinecurve
          hintmask 11010000
          -103 91 -72 76 65 vvcurveto
          32 21 21 41 45 29 -34 -7 10 vhcurveto
          -35 -322 rmoveto
          -29 -30 -34 -17 -36 hhcurveto
          hintmask 11100000
          -61 -35 35 57 50 22 36 18 20 hvcurveto
          40 -51 56 -50 60 -51 rrcurveto
          endchar
        </CharString>
        <CharString name="apostrophe">
          -276 -46 callsubr
        </CharString>
        <CharString name="aring">
          -38 callsubr
          39 49 102 50 hstemhm
          28 callsubr
          10 56 87 56 -14 114 -92 92 hintmask 1011111101000000
          -97 callsubr
          hintmask 0111111101000000
          -68 callsubr
          hintmask 1011111010000000
          -94 callsubr
          -70 572 rmoveto
          -57 41 -44 57 vhcurveto
          hintmask 1011111101000000
          58 43 44 57 32 callsubr
          hvcurveto
          -11 callsubr
        </CharString>
        <CharString name="asciicircum">
          34 317 -21 381 -20 hstem
          491 315 rmoveto
          -179 362 rlineto
          -83 hlineto
          -179 -362 103 -19 92 200 9 20 10 23 7 18 rlinecurve
          25 -61 88 -193 rlineto
          endchar
        </CharString>
        <CharString name="asciitilde">
          9 247 83 -23 23 -23 83 hstemhm
          hintmask 01000000
          174 390 rmoveto
          -84 -40 -82 0 hvcurveto
          42 -47 rlineto
          32 30 12 14 40 hhcurveto
          hintmask 10000000
          62 28 -60 77 hhcurveto
          85 40 83 0 hvcurveto
          -42 46 rlineto
          -32 -29 -13 -14 -41 hhcurveto
          hintmask 00100000
          -61 -28 60 -78 hhcurveto
          endchar
        </CharString>
        <CharString name="asterisk">
          -57 367 -21 331 -20 hstem
          174 49 callsubr
          9 -111 -103 43 -30 -91 111 -26 -77 -89 78 -57 62 100 61 -99 78 57 -76 87 113 27 -30 91 -110 -46 10 114 rlineto
          endchar
        </CharString>
        <CharString name="at">
          387 -162 78 78 79 308 74 83 77 hstem
          55 85 94 112 174 106 134 84 vstem
          626 429 rmoveto
          0 -105 26 -72 -128 -87 -101 -136 -136 52 -88 113 79 45 39 76 18 vhcurveto
          -66 17 37 -49 74 hhcurveto
          127 48 192 91 230 -169 108 -184 -214 -222 -145 -271 -279 178 -82 178 100 95 45 2 3 hvcurveto
          -27 69 rlineto
          -2 -4 -89 -36 -79 hhcurveto
          -216 -54 143 144 219 173 116 167 149 131 -85 -184 -46 -19 -150 -64 -46 -5 68 76 hvcurveto
          -210 -148 rmoveto
          -59 -11 74 84 90 35 64 79 19 30 -7 -3 11 hvcurveto
          -134 vlineto
          -87 -47 -81 -57 vhcurveto
          endchar
        </CharString>
        <CharString name="atilde">
          -38 callsubr
          77 83 -63 63 -63 83 -34 callsubr
          hintmask 1011001010000000
          -97 callsubr
          hintmask 0111001010000000
          -68 callsubr
          hintmask 1010101100000000
          -94 callsubr
          -132 515 -20 callsubr
          hintmask 1011001100000000
          -73 callsubr
          hintmask 1010011100000000
          -52 callsubr
        </CharString>
        <CharString name="b">
          25 -6 80 352 80 45 callsubr
          195 123 vstem
          65 23 rmoveto
          0 113 -29 80 41 callsubr
          -68 -42 -32 -54 -24 vhcurveto
          305 vlineto
          -114 -20 rlineto
          229 -279 rmoveto
          73 7 -85 52 callsubr
          145 77 callsubr
        </CharString>
        <CharString name="backslash">
          -90 11 callsubr
          109 729 rmoveto
          74 callsubr
          318 -855 rlineto
          119 hlineto
          endchar
        </CharString>
        <CharString name="bar">
          43 callsubr
          100 729 rmoveto
          -855 109 855 vlineto
          endchar
        </CharString>
        <CharString name="braceleft">
          70 callsubr
          60 183 -127 114 -100 100 hintmask 11010000
          116 609 rmoveto
          hintmask 11001000
          -72 14 -72 -59 vvcurveto
          hintmask 11100000
          -52 -23 -37 -47 -10 vhcurveto
          -82 vlineto
          hintmask 11001000
          47 -10 23 -37 -52 vvcurveto
          hintmask 11010000
          -59 -14 -72 -72 vvcurveto
          -69 50 -46 92 25 29 4 8 31 vhcurveto
          -22 84 rlineto
          -6 -19 -13 -3 -12 hhcurveto
          -37 -10 27 17 hvcurveto
          hintmask 11100000
          60 13 61 52 vvcurveto
          57 -11 53 -72 43 vhcurveto
          72 44 11 53 58 vvcurveto
          hintmask 11010000
          52 -13 61 60 vvcurveto
          16 10 28 37 12 13 -3 -6 19 vhcurveto
          22 84 rlineto
          8 -31 -29 4 -25 hhcurveto
          -92 -50 -46 -69 hvcurveto
          endchar
        </CharString>
        <CharString name="braceright">
          70 callsubr
          121 112 -112 182 -169 113 hintmask 11001000
          247 609 rmoveto
          69 -50 46 -91 -26 -28 -4 -8 -32 vhcurveto
          23 -84 rlineto
          6 18 14 3 12 hhcurveto
          37 10 -28 -16 hvcurveto
          hintmask 11100000
          -60 -13 -61 -52 vvcurveto
          -58 11 -53 72 -44 vhcurveto
          -72 -43 -11 -53 -57 vvcurveto
          hintmask 11001000
          -52 13 -61 -60 vvcurveto
          -17 -10 -27 -37 -12 -14 3 6 -18 vhcurveto
          -23 -84 rlineto
          -8 32 28 -4 26 hhcurveto
          91 50 46 69 hvcurveto
          hintmask 11100000
          72 -14 72 59 vvcurveto
          hintmask 11010000
          52 23 37 47 10 vhcurveto
          82 vlineto
          hintmask 11100000
          -47 10 -23 37 52 vvcurveto
          hintmask 11001000
          59 14 72 72 vvcurveto
          endchar
        </CharString>
        <CharString name="bracketleft">
          68 callsubr
          80 109 -109 228 hintmask 11010000
          80 720 rmoveto
          -906 228 88 vlineto
          hintmask 11100000
          -119 730 hlineto
          119 88 hlineto
          endchar
        </CharString>
        <CharString name="bracketright">
          68 callsubr
          61 228 -109 109 hintmask 11100000
          289 720 rmoveto
          -228 -88 hlineto
          hintmask 11010000
          119 -730 hlineto
          hintmask 11100000
          -119 -88 228 hlineto
          endchar
        </CharString>
        <CharString name="brokenbar">
          43 callsubr
          209 353 rmoveto
          376 -109 -376 vlineto
          109 -479 rmoveto
          374 -109 -374 vlineto
          endchar
        </CharString>
        <CharString name="bullet">
          -193 209 214 hstem
          50 214 vstem
          50 316 rmoveto
          -65 42 -42 65 65 42 42 65 65 -42 42 -65 -65 -42 -42 -65 vhcurveto
          endchar
        </CharString>
        <CharString name="c">
          -97 -7 82 347 88 hstem
          28 callsubr
          vstem
          13 callsubr
          -146 64 -98 154 84 50 27 3 7 hvcurveto
          -22 callsubr
        </CharString>
        <CharString name="ccedilla">
          -97 63 callsubr
          40 82 347 88 hstemhm
          28 callsubr
          133 74 hintmask 10111100
          13 callsubr
          -135 54 -94 130 -13 hvcurveto
          -20 -80 -12 callsubr
          32 hhcurveto
          55 40 callsubr
          41 65 6 39 20 6 3 rlinecurve
          -22 callsubr
        </CharString>
        <CharString name="cedilla">
          -7 63 callsubr
          -171 221 hstemhm
          279 74 hintmask 00110000
          209 3 rmoveto
          -22 -88 rlineto
          39 53 -13 -31 hvcurveto
          hintmask 10010000
          20 callsubr
          vhcurveto
          -16 -54 rlineto
          -9 23 31 -8 32 hhcurveto
          55 63 19 73 hvcurveto
          hintmask 01010000
          49 -38 26 -52 4 vhcurveto
          hintmask 00110000
          11 50 rlineto
          endchar
        </CharString>
        <CharString name="cent">
          -49 -21 -21 696 -20 hstem
          55 120 67 78 vstem
          320 -42 rmoveto
          118 vlineto
          7 58 40 20 -1 hhcurveto
          -28 72 1 1 -37 -13 -33 -5 rlinecurve
          315 vlineto
          15 -8 12 -12 11 -12 65 62 rcurveline
          -24 33 -35 23 -44 8 rrcurveto
          87 -78 -86 vlineto
          -108 -17 -79 -85 -156 vvcurveto
          -136 55 -88 132 -12 vhcurveto
          -116 vlineto
          -67 367 rmoveto
          109 33 34 34 10 vhcurveto
          -315 vlineto
          -35 14 -32 40 108 vvcurveto
          endchar
        </CharString>
        <CharString name="circumflex">
          35 callsubr
          113 538 -77 callsubr
        </CharString>
        <CharString name="colon">
          -218 -11 151 219 151 hstem
          91 148 vstem
          166 140 -35 callsubr
          370 vmoveto
          -49 -26 -34 -44 -39 -33 callsubr
          endchar
        </CharString>
        <CharString name="comma">
          -227 -126 16 callsubr
          106 42 callsubr
          87 123 -58 callsubr
        </CharString>
        <CharString name="copyright">
          275 -6 73 76 73 256 73 68 73 hstem
          45 85 117 94 310 86 vstem
          45 340 rmoveto
          -203 139 -143 203 203 147 143 203 203 -140 143 -203 -203 -146 -143 -203 vhcurveto
          85 6 rmoveto
          156 108 111 153 154 106 -124 -156 -155 -107 -111 -154 -152 -108 124 155 vhcurveto
          383 160 rmoveto
          18 -17 -29 21 -49 hhcurveto
          -117 -54 -85 -122 -127 53 -68 103 56 43 18 2 3 hvcurveto
          -22 66 rlineto
          -2 -5 -27 -11 -36 hhcurveto
          -52 -22 56 72 71 16 57 53 29 21 -16 -3 4 hvcurveto
          endchar
        </CharString>
        <CharString name="currency">
          81 16 -21 65 75 298 74 65 -20 hstem
          71 85 276 85 vstem
          71 283 rmoveto
          -56 16 -49 29 -38 vhcurveto
          -86 -77 68 -68 83 91 rlineto
          -17 32 37 -9 42 hhcurveto
          43 38 10 17 33 hvcurveto
          84 -92 68 68 -88 78 rlineto
          30 38 17 48 56 vvcurveto
          56 -17 49 -30 38 vhcurveto
          87 78 -69 68 -82 -91 rlineto
          17 -32 -37 9 -43 hhcurveto
          -42 -37 -10 -17 -32 hvcurveto
          -83 92 -68 -68 86 -78 rlineto
          -30 -38 -17 -49 -56 vvcurveto
          85 5 rmoveto
          84 56 61 80 83 57 -68 -85 -84 -57 -61 -83 -80 -56 68 85 vhcurveto
          endchar
        </CharString>
        <CharString name="d">
          29 -6 81 -62 -21 434 80 219 -20 33 callsubr
          hintmask 10111100
          515 28 rmoveto
          -3 7 -45 47 159 vvcurveto
          464 vlineto
          -114 20 rlineto
          -226 vlineto
          4 -27 -28 3 -24 -89 callsubr
          hintmask 01111100
          6 -80 41 -39 4 -4 rrcurveto
          hintmask 10111100
          -188 83 47 callsubr
          84 -81 callsubr
          -98 -66 vhcurveto
          endchar
        </CharString>
        <CharString name="degree">
          -197 488 57 119 57 hstem
          40 64 103 63 vstem
          40 604 rmoveto
          -67 47 -49 67 67 49 50 66 67 -47 50 -67 -67 -49 -50 -67 vhcurveto
          64 1 rmoveto
          37 19 22 32 33 19 -25 -35 -37 -19 -22 -33 -32 -19 25 35 vhcurveto
          endchar
        </CharString>
        <CharString name="dieresis">
          -7 568 127 hstem
          88 -23 callsubr
          vstem
          212 632 -107 callsubr
        </CharString>
        <CharString name="divide">
          4 74 122 61 89 57 122 hstem
          194 119 vstem
          313 465 4 callsubr
          -253 -208 rmoveto
          391 89 -391 hlineto
          253 -210 4 callsubr
          endchar
        </CharString>
        <CharString name="dollar">
          12 -83 184 430 163 hstem
          71 116 36 82 38 115 vstem
          223 -83 rmoveto
          82 98 hlineto
          101 21 52 77 79 vvcurveto
          93 -57 42 -99 39 vhcurveto
          -75 28 -40 24 54 vvcurveto
          43 42 16 45 57 57 -31 -10 22 vhcurveto
          40 82 -15 9 -60 28 -70 8 rlinecurve
          77 -82 -79 vlineto
          -91 -17 -61 -63 -76 vvcurveto
          -97 66 -47 111 -43 vhcurveto
          58 -22 37 -13 -53 vvcurveto
          -55 -33 -28 -67 -53 -77 44 12 -20 vhcurveto
          -43 -88 22 -13 67 -37 84 -8 rlinecurve
          endchar
        </CharString>
        <CharString name="dotlessi">
          -9 callsubr
          hstem
          50 42 callsubr
          -87 callsubr
          endchar
        </CharString>
        <CharString name="e">
          -25 callsubr
          hstem
          35 118 82 callsubr
          vstem
          -105 callsubr
          endchar
        </CharString>
        <CharString name="eacute">
          -100 callsubr
          -18 106 -63 callsubr
        </CharString>
        <CharString name="ecircumflex">
          -100 callsubr
          -148 106 -77 callsubr
        </CharString>
        <CharString name="edieresis">
          -25 callsubr
          77 48 callsubr
          35 118 -59 -23 callsubr
          -89 114 hintmask 11101001
          -105 callsubr
          hintmask 00010110
          -49 219 -107 callsubr
        </CharString>
        <CharString name="egrave">
          -100 callsubr
          38 158 -53 callsubr
        </CharString>
        <CharString name="eight">
          17 -6 79 490 79 hstemhm
          50 119 -102 118 149 119 -101 122 hintmask 11101000
          261 -6 rmoveto
          hintmask 11011000
          120 93 68 103 72 -61 64 -63 34 hvcurveto
          54 38 49 50 69 vvcurveto
          85 -82 65 -105 vhcurveto
          hintmask 11100100
          -113 -86 -70 -84 -71 47 -55 59 -34 hvcurveto
          -61 -38 -62 -50 -81 vvcurveto
          -111 96 -54 115 vhcurveto
          -92 169 rmoveto
          58 44 37 51 29 vhcurveto
          39 -29 49 -47 -50 vvcurveto
          -47 -33 -41 -50 -64 -36 41 49 vhcurveto
          165 328 rmoveto
          -61 -33 -29 -39 -22 vhcurveto
          -37 21 -40 36 57 vvcurveto
          45 31 25 46 vhcurveto
          hintmask 11011000
          45 27 -31 -41 hvcurveto
          endchar
        </CharString>
        <CharString name="emdash">
          191 278 83 hstem
          278 vmoveto
          698 83 -698 hlineto
          endchar
        </CharString>
        <CharString name="endash">
          -7 278 83 hstem
          278 72 callsubr
        </CharString>
        <CharString name="equal">
          -4 173 88 87 88 hstem
          70 348 rmoveto
          363 88 -363 hlineto
          -263 vmoveto
          363 88 -363 hlineto
          endchar
        </CharString>
        <CharString name="eth">
          10 -10 84 331 79 245 -20 67 callsubr
          482 250 rmoveto
          124 -29 114 -55 90 vhcurveto
          94 20 -20 77 -122 -32 -30 33 -34 29 -39 24 rlinecurve
          -58 -70 54 -42 -75 -16 20 -78 112 31 17 -29 17 -33 14 -37 rlinecurve
          16 -23 -32 13 -40 hhcurveto
          -143 -75 -107 -138 -145 66 -104 153 153 75 110 150 hvcurveto
          -229 155 rmoveto
          86 20 -74 -91 -88 -18 -78 -77 -86 -20 83 91 89 18 68 77 hvcurveto
          endchar
        </CharString>
        <CharString name="exclam">
          -188 -11 151 537 -20 hstem
          100 140 -114 42 callsubr
          176 140 -35 callsubr
          -49 80 rmoveto
          98 hlineto
          29 457 rlineto
          -127 hlineto
          endchar
        </CharString>
        <CharString name="exclamdown">
          -188 -182 -20 557 151 hstem
          65 140 -114 42 callsubr
          141 355 rmoveto
          47 26 31 44 42 -26 34 -50 -46 -26 -34 -40 -43 26 -34 49 hvcurveto
          -49 -537 rmoveto
          127 hlineto
          -29 457 rlineto
          -98 hlineto
          endchar
        </CharString>
        <CharString name="f">
          -155 -202 -21 640 81 136 88 hstemhm
          104 100 -100 114 hintmask 11101000
          377 680 rmoveto
          23 -21 -32 19 -52 hhcurveto
          -94 -84 -55 -108 -18 2 -23 5 -20 hvcurveto
          -87 -81 90 -403 hlineto
          -42 -4 -68 -100 -51 vhcurveto
          46 -76 rlineto
          80 41 92 48 159 vvcurveto
          392 104 vlineto
          14 81 rlineto
          -124 hlineto
          hintmask 11110000
          -6 23 -2 18 15 vvcurveto
          70 51 10 25 18 26 -15 -4 4 vhcurveto
          endchar
        </CharString>
        <CharString name="five">
          2 -7 88 234 89 142 91 hstem
          337 123 vstem
          112 287 rmoveto
          3 7 39 25 79 hhcurveto
          60 40 -38 -70 -84 -30 -42 -77 -48 -42 21 27 -61 hvcurveto
          -34 -83 rlineto
          -31 68 69 -22 70 hhcurveto
          152 56 108 105 110 -70 88 -111 -62 -29 -12 -7 -10 hvcurveto
          21 161 rlineto
          212 hlineto
          16 91 rlineto
          -328 hlineto
          -34 -315 rlineto
          endchar
        </CharString>
        <CharString name="four">
          18 21 -21 176 86 375 -20 hstem
          300 113 vstem
          300 hmoveto
          113 176 81 hlineto
          16 86 rlineto
          -97 224 hlineto
          -113 -20 rlineto
          -204 -156 vlineto
          175 375 rlineto
          -117 hlineto
          -182 -397 rlineto
          -64 280 vlineto
          endchar
        </CharString>
        <CharString name="fraction">
          -179 21 -21 587 -20 hstem
          -20 hmoveto
          94 36 callsubr
          endchar
        </CharString>
        <CharString name="g">
          24 -217 90 121 80 352 80 hstemhm
          28 callsubr
          195 112 -74 74 -74 104 hintmask 11110010
          112 -175 rmoveto
          -9 15 89 -33 79 -3 callsubr
          hintmask 11110100
          80 -32 49 2 80 vhcurveto
          5 275 rlineto
          11 -45 -86 18 -65 hhcurveto
          -85 callsubr
          79 48 36 68 23 hvcurveto
          14 -34 8 -36 -35 vvcurveto
          -70 -32 -50 -74 -51 -55 24 15 -39 vhcurveto
          98 162 66 callsubr
          hvcurveto
          hintmask 11111000
          21 32 -7 -4 13 hvcurveto
          -152 vlineto
          -96 -52 -93 -63 vhcurveto
          endchar
        </CharString>
        <CharString name="germandbls">
          71 -202 -21 216 86 559 87 hstemhm
          95 114 75 106 2 113 -73 115 hintmask 11111100
          209 486 rmoveto
          73 23 79 81 41 38 -18 -45 vhcurveto
          -69 -108 -24 -99 vvcurveto
          hintmask 11111010
          -157 148 12 -95 vvcurveto
          -44 -32 -20 -52 -31 -37 21 5 -10 vhcurveto
          -34 -75 rlineto
          -5 8 55 -32 64 hhcurveto
          110 74 65 94 hvcurveto
          163 -157 -6 93 vvcurveto
          hintmask 11111100
          59 115 9 115 vvcurveto
          72 -54 68 -122 -156 -78 -101 -146 vhcurveto
          -464 vlineto
          -41 0 -76 -100 -51 vhcurveto
          43 -69 rlineto
          79 41 92 48 159 vvcurveto
          endchar
        </CharString>
        <CharString name="grave">
          35 callsubr
          313 590 -53 callsubr
        </CharString>
        <CharString name="greater">
          75 callsubr
          80 90 rmoveto
          345 169 rlineto
          82 vlineto
          -339 165 -40 -93 194 -87 20 -10 23 -9 18 -7 rlinecurve
          -18 -7 -24 -10 -20 -9 -199 -91 rcurveline
          endchar
        </CharString>
        <CharString name="guillemotleft">
          60 37 callsubr
          312 82 14 callsubr
          -77 -98 vhcurveto
          77 46 callsubr
          266 54 14 callsubr
          -76 -98 vhcurveto
          76 46 callsubr
          endchar
        </CharString>
        <CharString name="guillemotright">
          60 37 callsubr
          255 408 23 callsubr
          47 -54 rlineto
          0 138 119 76 98 vhcurveto
          -76 98 -138 119 0 vvcurveto
          -267 -54 -27 callsubr
        </CharString>
        <CharString name="guilsinglleft">
          -160 37 callsubr
          265 462 rmoveto
          0 -138 -119 -77 -98 vhcurveto
          77 46 callsubr
          47 54 34 callsubr
          rlineto
          endchar
        </CharString>
        <CharString name="guilsinglright">
          -160 37 callsubr
          35 408 -27 callsubr
        </CharString>
        <CharString name="h">
          33 21 -21 417 89 45 callsubr
          187 42 callsubr
          179 725 rmoveto
          -114 -20 rlineto
          -705 114 264 vlineto
          91 66 62 55 48 18 80 callsubr
          114 334 vlineto
          106 -43 66 -103 -59 -58 -21 -51 -38 vhcurveto
          endchar
        </CharString>
        <CharString name="hyphen">
          6 callsubr
        </CharString>
        <CharString name="i">
          -251 -4 84 418 -20 104 138 hstem
          61 42 callsubr
          170 -92 callsubr
          -50 724 rmoveto
          -46 -24 -30 -41 -37 24 -30 43 45 24 30 40 40 -24 28 -42 hvcurveto
          endchar
        </CharString>
        <CharString name="iacute">
          -50 callsubr
          -55 543 rmoveto
          0 92 76 79 98 vhcurveto
          -79 67 -140 -190 rlineto
          endchar
        </CharString>
        <CharString name="icircumflex">
          -9 callsubr
          82 -21 242 -71 callsubr
          -53 645 rmoveto
          70 -64 40 -27 14 -11 47 50 rcurveline
          -171 192 -170 -192 46 -50 17 13 36 24 71 65 rlinecurve
          endchar
        </CharString>
        <CharString name="idieresis">
          -9 callsubr
          106 121 hstemhm
          -35 118 -33 114 -34 119 -83 callsubr
          hintmask 00110100
          -76 650 rmoveto
          34 -21 25 -37 -39 -21 -26 -36 -32 21 -27 36 40 21 27 35 vhcurveto
          166 hmoveto
          34 -21 25 -37 -40 -21 -26 8 callsubr
          endchar
        </CharString>
        <CharString name="igrave">
          -50 callsubr
          -5 594 rmoveto
          -139 190 -80 -67 rlineto
          79 -98 92 -76 65 callsubr
        </CharString>
        <CharString name="j">
          -263 -202 -21 721 84 0 138 hstemhm
          65 114 hintmask 11010000
          65 13 rmoveto
          -41 -5 -68 -99 -51 vhcurveto
          46 -76 rlineto
          79 41 93 47 159 vvcurveto
          474 -114 vlineto
          hintmask 10110000
          58 222 rmoveto
          -45 -24 -30 -41 -37 24 -30 42 46 24 30 40 40 -24 28 -43 hvcurveto
          endchar
        </CharString>
        <CharString name="k">
          13 21 -21 426 81 218 79 callsubr
          185 116 vstem
          65 705 rmoveto
          -705 114 321 vlineto
          9 22 96 101 37 25 -20 -39 -72 -116 -31 -22 -5 vhcurveto
          1 -10 144 -249 rlineto
          129 hlineto
          -140 223 rlineto
          0 120 34 118 vvcurveto
          83 -64 49 -83 -88 -45 -41 -26 -21 vhcurveto
          285 vlineto
          endchar
        </CharString>
        <CharString name="l">
          -216 -4 82 648 -20 hstem
          60 42 callsubr
          171 -4 rmoveto
          64 41 18 0 hvcurveto
          -14 72 rlineto
          0 -26 -8 -27 -23 -12 11 30 vhcurveto
          607 vlineto
          -114 -21 rlineto
          -597 vlineto
          -65 36 -47 75 vhcurveto
          endchar
        </CharString>
        <CharString name="less">
          75 callsubr
          415 183 rmoveto
          -199 91 -21 10 -24 9 -17 7 rlinecurve
          17 7 24 9 20 10 194 87 rcurveline
          -40 93 -339 -165 rlineto
          -82 vlineto
          345 -169 rlineto
          endchar
        </CharString>
        <CharString name="logicalnot">
          4 182 213 -88 88 hstemhm
          374 86 hintmask 01100000
          50 307 rmoveto
          324 hlineto
          hintmask 10100000
          -125 86 213 -410 vlineto
          endchar
        </CharString>
        <CharString name="m">
          302 21 -21 417 89 hstem
          74 114 167 113 168 113 vstem
          749 hmoveto
          334 vlineto
          103 -33 69 -104 -62 -61 -27 -66 -36 vhcurveto
          54 -18 -36 39 -68 hhcurveto
          -67 -67 -33 -80 -33 hvcurveto
          -12 71 -37 37 -41 callsubr
          248 vlineto
          105 55 64 54 43 15 80 callsubr
          113 266 vlineto
          92 60 59 50 43 15 80 callsubr
          vlineto
          endchar
        </CharString>
        <CharString name="macron">
          -7 600 83 hstem
          90 600 rmoveto
          322 83 -322 hlineto
          endchar
        </CharString>
        <CharString name="minus">
          -49 257 89 hstem
          61 257 rmoveto
          337 89 -337 hlineto
          endchar
        </CharString>
        <CharString name="multiply">
          9 125 -21 393 -20 hstem
          67 432 rmoveto
          128 -128 -135 -134 65 -66 136 135 134 -135 61 63 -134 133 130 130 -65 67 -131 -132 -128 130 rlineto
          endchar
        </CharString>
        <CharString name="n">
          42 21 -21 416 90 hstem
          74 39 callsubr
          113 vstem
          -48 callsubr
          endchar
        </CharString>
        <CharString name="nine">
          16 -6 88 139 86 248 85 hstem
          35 116 206 122 vstem
          81 21 rmoveto
          -15 35 44 -12 49 hhcurveto
          194 76 151 171 189 -55 135 -167 -144 -78 -92 -119 -131 72 -77 116 69 43 36 26 22 hvcurveto
          -109 -3 -26 -92 -115 hhcurveto
          -34 -37 8 10 -30 hvcurveto
          133 207 rmoveto
          -70 -24 54 69 73 29 52 68 74 31 -65 -138 4 hvcurveto
          -6 -9 -49 -39 -54 hhcurveto
          endchar
        </CharString>
        <CharString name="ntilde">
          42 21 -21 416 90 77 -5 callsubr
          74 39 callsubr
          113 hintmask 11010110
          -48 callsubr
          -218 589 -67 callsubr
        </CharString>
        <CharString name="numbersign">
          109 0 221 -78 78 157 78 -78 215 hstemhm
          hintmask 10010000
          406 593 rmoveto
          hintmask 10100000
          -18 -137 rlineto
          -124 hlineto
          hintmask 10010000
          18 137 rlineto
          -79 hlineto
          hintmask 10100000
          -18 -137 rlineto
          -112 hlineto
          -10 -78 rlineto
          112 hlineto
          -20 -157 rlineto
          -105 hlineto
          hintmask 01100000
          -10 -78 rlineto
          105 26 callsubr
          124 26 callsubr
          106 hlineto
          10 78 rlineto
          -106 hlineto
          20 157 rlineto
          99 hlineto
          10 78 rlineto
          -99 hlineto
          hintmask 10010000
          18 137 rlineto
          -231 -215 rmoveto
          124 hlineto
          -20 -157 rlineto
          -124 hlineto
          endchar
        </CharString>
        <CharString name="o">
          -6 callsubr
          67 callsubr
          -104 callsubr
          endchar
        </CharString>
        <CharString name="oacute">
          -6 callsubr
          49 31 callsubr
          201 123 hintmask 11001100
          -104 callsubr
          hintmask 00110000
          -4 112 -63 callsubr
        </CharString>
        <CharString name="ocircumflex">
          -6 callsubr
          49 31 callsubr
          201 123 hintmask 11001100
          -104 callsubr
          hintmask 00110000
          -134 112 -77 callsubr
        </CharString>
        <CharString name="odieresis">
          -6 callsubr
          77 48 callsubr
          28 callsubr
          -64 -23 callsubr
          -59 123 hintmask 11010010
          -104 callsubr
          hintmask 00101100
          -35 225 -107 callsubr
        </CharString>
        <CharString name="oe">
          293 -10 85 -61 -21 195 72 166 84 hstemhm
          28 callsubr
          201 121 176 113 hintmask 10111110
          -79 callsubr
          70 53 29 45 37 hvcurveto
          hintmask 01111110
          -44 35 52 -27 77 hhcurveto
          100 87 46 0 hvcurveto
          -30 71 rlineto
          hintmask 10111110
          -47 callsubr
          177 2 110 82 96 vvcurveto
          80 -48 62 -118 -71 -61 -28 -50 -43 vhcurveto
          47 -35 -54 31 -76 hhcurveto
          -84 callsubr
          341 6 rmoveto
          36 26 -57 callsubr
          endchar
        </CharString>
        <CharString name="ograve">
          -6 callsubr
          49 31 callsubr
          201 123 hintmask 11001100
          -104 callsubr
          hintmask 00110000
          52 164 -53 callsubr
        </CharString>
        <CharString name="one">
          -122 21 -21 637 -20 hstem
          171 42 callsubr
          200 637 rmoveto
          -76 -82 -59 -24 -65 -27 45 -82 rcurveline
          39 11 46 33 41 38 rrcurveto
          -504 114 637 vlineto
          endchar
        </CharString>
        <CharString name="onehalf">
          218 0 71 210 68 237 -20 21 -20 hstemhm
          108 82 254 233 -90 90 29 callsubr
          hintmask 11101010
          -281 -1 -43 callsubr
          285 -338 rmoveto
          3 5 43 30 36 hhcurveto
          19 9 -13 -21 -31 -20 -25 -49 -53 hvcurveto
          hintmask 11011100
          -34 -39 -40 -28 50 callsubr
          14 12 9 9 rrcurveto
          54 54 35 47 52 vvcurveto
          65 -44 28 -66 -46 -39 -17 -22 -39 vhcurveto
          endchar
        </CharString>
        <CharString name="onequarter">
          204 21 -21 93 62 431 -20 21 -20 hstemhm
          108 82 374 83 29 callsubr
          hintmask 11101100
          -281 -1 -43 callsubr
          457 -319 81 callsubr
          -68 vlineto
          83 195 rlineto
          -82 76 callsubr
          -93 83 93 71 callsubr
        </CharString>
        <CharString name="ordfeminine">
          -107 335 64 -44 -21 290 62 hstemhm
          35 97 116 89 hintmask 10111000
          337 667 rmoveto
          1 -84 19 -53 hhcurveto
          -98 -68 -75 -104 -103 42 -69 90 49 32 21 40 17 hvcurveto
          hintmask 01111000
          12 -39 27 -23 0 vvcurveto
          66 26 rlineto
          0 -33 41 104 vvcurveto
          hintmask 10111000
          -159 -106 rmoveto
          -42 -4 57 57 64 17 47 61 10 16 -4 -2 12 hvcurveto
          -79 vlineto
          -71 -31 -69 -39 vhcurveto
          endchar
        </CharString>
        <CharString name="ordmasculine">
          -98 332 67 220 67 hstem
          45 97 125 97 vstem
          208 58 callsubr
          -110 -53 -78 -104 -106 47 -66 110 109 53 78 102 108 -47 66 -109 hvcurveto
          -7 -67 rmoveto
          54 12 -50 -62 -62 -11 -46 -47 -55 -12 50 62 62 11 46 48 hvcurveto
          endchar
        </CharString>
        <CharString name="oslash">
          10 -33 -21 607 -20 hstem
          -61 callsubr
          -93 23 -71 49 -43 hvcurveto
          -27 -56 78 -35 25 52 rlineto
          -5 21 24 -3 26 hhcurveto
          153 75 115 150 93 -23 71 -50 44 hvcurveto
          27 55 -77 35 -25 -51 rlineto
          5 -21 -24 3 -26 hhcurveto
          -10 -84 rmoveto
          15 14 -3 -5 11 hvcurveto
          -126 -258 rlineto
          -7 27 -2 32 35 vvcurveto
          97 18 75 77 vhcurveto
          106 -181 rmoveto
          -96 -18 -75 -77 -16 -13 2 5 -11 vhcurveto
          125 259 rlineto
          7 -28 3 -32 -35 vvcurveto
          endchar
        </CharString>
        <CharString name="otilde">
          -6 callsubr
          73 -5 callsubr
          28 callsubr
          201 123 hintmask 11010110
          -104 callsubr
          -158 163 -67 callsubr
        </CharString>
        <CharString name="p">
          34 -200 -21 215 80 352 80 hstem
          74 114 195 122 vstem
          188 -201 rmoveto
          201 vlineto
          -3 26 27 -3 25 hhcurveto
          143 96 112 152 150 -58 98 -125 -87 -48 -42 -80 -22 hvcurveto
          -9 76 -41 41 -39 callsubr
          -473 vlineto
          229 647 rmoveto
          73 7 -85 -93 -101 -29 -73 -101 -20 -32 7 4 -13 hvcurveto
          144 77 callsubr
        </CharString>
        <CharString name="paragraph">
          71 -202 -21 900 -20 22 -20 hstemhm
          60 230 99 118 hintmask 10111000
          290 679 rmoveto
          -150 -80 -77 -129 -127 77 -81 153 hvcurveto
          hintmask 11011000
          217 412 rmoveto
          -118 -664 hlineto
          -42 0 -64 -105 -51 vhcurveto
          46 55 callsubr
        </CharString>
        <CharString name="parenleft">
          69 callsubr
          70 113 vstem
          70 269 rmoveto
          -262 138 -147 73 -51 vhcurveto
          62 68 rlineto
          -59 49 -101 124 218 vvcurveto
          216 102 125 58 49 vhcurveto
          -62 68 rlineto
          -73 -51 -138 -148 -258 vvcurveto
          endchar
        </CharString>
        <CharString name="parenright">
          69 callsubr
          231 112 vstem
          343 269 rmoveto
          258 -138 148 -73 51 vhcurveto
          -61 -68 rlineto
          58 -49 102 -125 -216 vvcurveto
          -218 -101 -124 -59 -49 vhcurveto
          61 -68 rlineto
          73 51 138 147 262 vvcurveto
          endchar
        </CharString>
        <CharString name="percent">
          333 -3 71 -47 -21 237 71 -28 71 169 71 hstemhm
          40 98 105 98 158 98 105 97 hintmask 0110111110000000
          193 591 rmoveto
          -103 -50 -77 -104 -106 44 -67 103 104 50 78 102 108 -44 -15 callsubr
          50 -520 rmoveto
          94 36 callsubr
          hintmask 1001111110000000
          141 -236 rmoveto
          -104 -49 -77 -104 -106 44 -67 103 104 49 78 102 108 -43 -15 callsubr
          endchar
        </CharString>
        <CharString name="period">
          -238 -11 151 hstem
          60 148 vstem
          136 140 -4 callsubr
        </CharString>
        <CharString name="periodcentered">
          -258 242 151 hstem
          50 148 vstem
          126 393 -4 callsubr
        </CharString>
        <CharString name="plus">
          5 120 -21 158 89 152 -20 hstem
          209 94 vstem
          60 257 rmoveto
          149 -158 94 158 27 callsubr
        </CharString>
        <CharString name="plusminus">
          6 32 88 137 89 152 -20 hstem
          210 94 vstem
          61 257 rmoveto
          149 -137 -150 -88 392 88 -148 137 27 callsubr
        </CharString>
        <CharString name="q">
          25 -201 -21 216 81 351 80 hstem
          15 callsubr
          vstem
          467 477 rmoveto
          0 -113 29 -80 -85 callsubr
          64 43 23 45 27 vhcurveto
          -263 vlineto
          114 -21 rlineto
          -229 297 47 callsubr
          84 -78 callsubr
          -99 -50 -97 -65 vhcurveto
          endchar
        </CharString>
        <CharString name="question">
          -74 -11 151 460 87 hstem
          112 148 21 128 vstem
          219 687 rmoveto
          -68 -57 -25 -25 -54 hvcurveto
          39 -79 rlineto
          27 58 24 15 43 hhcurveto
          46 31 -28 -49 hvcurveto
          -79 -142 -85 -139 vvcurveto
          84 -23 14 49 33 45 37 46 rlinecurve
          49 60 53 63 77 vvcurveto
          106 -73 44 -117 vhcurveto
          -32 -547 -35 callsubr
          endchar
        </CharString>
        <CharString name="questiondown">
          -73 -192 87 460 151 hstem
          24 128 21 148 vstem
          214 -192 rmoveto
          68 57 25 25 54 hvcurveto
          -39 79 rlineto
          -27 -58 -24 -15 -43 hhcurveto
          -46 -31 28 49 hvcurveto
          79 142 85 139 vvcurveto
          -84 23 -14 -49 -33 -45 -37 -46 rlinecurve
          -49 -60 -53 -63 -77 vvcurveto
          -106 73 -44 117 vhcurveto
          32 547 rmoveto
          49 26 34 43 40 -26 34 -46 -50 -26 -34 -42 -44 26 -31 47 hvcurveto
          endchar
        </CharString>
        <CharString name="quotedbl">
          -141 434 243 hstem
          54 89 81 17 callsubr
          73 hmoveto
          9 callsubr
          endchar
        </CharString>
        <CharString name="quotedblbase">
          -77 -126 -2 callsubr
          86 42 callsubr
          77 123 -60 callsubr
        </CharString>
        <CharString name="quotedblleft">
          -77 60 callsubr
          86 114 -40 callsubr
          200 hmoveto
          22 callsubr
          52 38 vhcurveto
          -42 58 rlineto
          -71 -36 -67 -70 -108 vvcurveto
          -43 21 -31 47 46 18 17 1 1 vhcurveto
          endchar
        </CharString>
        <CharString name="quotedblright">
          -77 460 -2 callsubr
          86 42 callsubr
          77 709 -60 callsubr
        </CharString>
        <CharString name="quoteleft">
          -277 60 callsubr
          -40 callsubr
          endchar
        </CharString>
        <CharString name="quoteright">
          -277 -46 callsubr
        </CharString>
        <CharString name="quotesinglbase">
          -277 -126 59 callsubr
          123 -58 callsubr
        </CharString>
        <CharString name="quotesingle">
          -311 434 243 hstem
          54 17 callsubr
          endchar
        </CharString>
        <CharString name="r">
          -138 21 -21 394 111 hstem
          74 42 callsubr
          288 394 rmoveto
          33 17 -11 -1 hhcurveto
          32 111 rlineto
          1 -32 11 -31 hhcurveto
          -64 -53 -32 -77 -27 hvcurveto
          -12 69 -36 36 -41 callsubr
          274 vlineto
          71 52 49 48 vhcurveto
          endchar
        </CharString>
        <CharString name="registered">
          77 222 57 348 59 hstem
          60 65 84 53 59 55 81 67 vstem
          60 454 rmoveto
          -136 94 -96 136 135 99 96 136 136 -94 96 -136 -136 -98 -96 -136 vhcurveto
          65 3 rmoveto
          100 69 70 96 99 68 -79 -99 -100 -69 -70 -98 -96 -69 79 99 vhcurveto
          159 124 rmoveto
          -19 -49 -1 -7 hhcurveto
          -255 53 108 5 vlineto
          39 -2 8 -23 31 -81 50 18 rcurveline
          -27 74 -9 25 -22 7 rrcurveto
          24 14 15 20 25 vvcurveto
          45 -29 26 -63 vhcurveto
          -7 -32 rmoveto
          34 10 -22 -21 -25 -6 -9 -30 -6 hvcurveto
          -1 -6 -14 -1 -3 hhcurveto
          85 vlineto
          endchar
        </CharString>
        <CharString name="ring">
          -7 625 49 102 50 hstem
          151 56 87 56 vstem
          151 726 rmoveto
          -57 41 -44 57 58 43 44 57 32 callsubr
          vhcurveto
          -11 callsubr
        </CharString>
        <CharString name="s">
          -95 -10 84 352 84 hstem
          43 116 102 115 vstem
          212 510 rmoveto
          -97 -72 -64 -76 -78 42 -46 102 -38 hvcurveto
          49 -18 25 -30 -35 vvcurveto
          -31 -22 -20 -47 vhcurveto
          -51 -81 48 1 hhcurveto
          -37 -84 rlineto
          1 -1 91 -49 88 hhcurveto
          110 64 74 75 85 -50 37 -84 32 hvcurveto
          -57 22 -26 29 38 vvcurveto
          29 26 15 30 52 66 -33 0 vhcurveto
          34 78 rlineto
          0 -76 39 -79 vhcurveto
          endchar
        </CharString>
        <CharString name="section">
          51 -216 84 691 84 hstemhm
          50 116 -46 115 73 115 -46 116 hintmask 11100100
          377 169 rmoveto
          -46 -31 -21 -25 -9 vhcurveto
          -71 59 -84 46 60 vvcurveto
          46 31 20 24 9 vhcurveto
          72 -58 84 -47 -59 vvcurveto
          -123 -385 rmoveto
          hintmask 11101000
          103 66 66 82 39 -16 33 -23 29 hvcurveto
          hintmask 11010100
          42 18 67 43 87 vvcurveto
          74 -47 49 -54 42 vhcurveto
          -72 56 -85 41 63 vvcurveto
          36 21 17 36 43 34 -16 -6 11 vhcurveto
          35 78 rlineto
          5 -13 -47 23 -66 hhcurveto
          -103 -66 -66 -82 -39 15 -33 24 -30 hvcurveto
          hintmask 11101000
          -43 -18 -66 -42 -88 vvcurveto
          -57 30 -44 38 -36 vhcurveto
          76 -71 114 -43 -73 vvcurveto
          -36 -20 -17 -37 -41 -41 19 3 -6 vhcurveto
          -35 -78 rlineto
          -3 4 57 -25 65 hhcurveto
          endchar
        </CharString>
        <CharString name="semicolon">
          -218 359 151 hstem
          90 148 vstem
          166 510 rmoveto
          -50 -26 -34 -44 -39 -10 callsubr
          -59 -387 rmoveto
          -36 callsubr
        </CharString>
        <CharString name="seven">
          -49 21 -21 546 91 hstem
          422 637 rmoveto
          -417 hlineto
          16 -91 rlineto
          271 hlineto
          -194 -546 rlineto
          123 hlineto
          201 565 rlineto
          endchar
        </CharString>
        <CharString name="six">
          17 -6 85 248 86 139 88 hstem
          45 122 206 116 vstem
          443 613 rmoveto
          15 -35 -43 12 -49 hhcurveto
          -194 -77 -151 -171 -189 56 -135 167 143 78 92 119 131 -72 77 -116 -68 -44 -38 -26 -22 hvcurveto
          111 3 26 92 116 hhcurveto
          34 37 -8 -10 29 hvcurveto
          -133 -207 rmoveto
          71 23 -54 -69 -74 -29 -51 -67 -75 -30 64 137 -5 hvcurveto
          8 8 50 39 54 hhcurveto
          endchar
        </CharString>
        <CharString name="slash">
          -16 callsubr
        </CharString>
        <CharString name="space">
          -252 endchar
        </CharString>
        <CharString name="sterling">
          56 -6 94 -82 82 163 90 202 93 hstemhm
          hintmask 01110000
          60 341 rmoveto
          -90 67 vlineto
          -6 -73 rlineto
          -6 -83 -48 -30 0 vvcurveto
          28 -67 rlineto
          0 60 8 78 vhcurveto
          hintmask 10110000
          45 44 -12 60 65 63 33 -1 hhcurveto
          -34 84 rlineto
          0 -53 -23 -41 vhcurveto
          -39 -36 6 -38 hhcurveto
          -24 -25 -2 -4 -25 hvcurveto
          17 26 18 38 7 60 4 39 rcurveline
          178 hlineto
          14 90 rlineto
          -182 hlineto
          10 95 rlineto
          85 9 45 22 48 hhcurveto
          61 41 -40 1 hvcurveto
          48 87 rlineto
          14 -19 -46 31 -92 hhcurveto
          -124 -81 -82 -125 -9 hvcurveto
          -7 -88 rlineto
          endchar
        </CharString>
        <CharString name="t">
          -146 -4 84 337 81 138 -20 hstem
          100 42 callsubr
          10 417 rmoveto
          90 -309 hlineto
          -82 54 -30 74 vhcurveto
          75 54 23 -1 hhcurveto
          -19 75 rlineto
          0 -40 -14 -38 -23 -22 7 34 vhcurveto
          296 109 vlineto
          14 81 rlineto
          -123 138 hlineto
          -94 -21 -20 -117 rlineto
          -90 hlineto
          endchar
        </CharString>
        <CharString name="thorn">
          25 -200 -21 215 80 351 81 45 callsubr
          195 123 vstem
          179 725 rmoveto
          -114 -20 rlineto
          -926 vlineto
          114 20 rlineto
          201 vlineto
          -3 26 27 -3 26 hhcurveto
          41 callsubr
          -65 -43 -23 -46 -26 hvcurveto
          115 -12 rmoveto
          73 7 -84 52 callsubr
          151 vlineto
          97 50 93 65 vhcurveto
          endchar
        </CharString>
        <CharString name="three">
          -7 -6 87 474 87 hstemhm
          306 119 -87 116 hintmask 11100000
          247 642 rmoveto
          -82 -51 -19 -30 -66 hvcurveto
          39 -77 rlineto
          24 62 31 15 51 hhcurveto
          47 28 -22 -41 -73 -90 -21 -96 -33 hvcurveto
          31 -78 rlineto
          1 6 46 11 45 hhcurveto
          hintmask 11010000
          48 42 -42 -61 -78 -58 -37 -61 -47 -44 21 27 -59 hvcurveto
          -34 -83 rlineto
          -28 61 66 -24 60 hhcurveto
          175 57 103 101 73 -47 71 -84 25 hvcurveto
          hintmask 11100000
          41 19 61 39 78 vvcurveto
          82 -61 57 -117 vhcurveto
          endchar
        </CharString>
        <CharString name="threequarters">
          280 21 -21 83 63 84 68 91 198 -68 68 hstemhm
          150 89 -72 87 362 83 hintmask 11110101
          189 hmoveto
          93 36 callsubr
          237 -329 81 callsubr
          -67 vlineto
          83 194 rlineto
          -82 hlineto
          -91 -217 rlineto
          -40 157 -83 83 83 39 vlineto
          10 63 rlineto
          -49 hlineto
          -565 441 rmoveto
          -45 -33 -12 -18 -41 hvcurveto
          29 -63 rlineto
          hintmask 11101101
          18 42 22 7 18 hhcurveto
          15 9 53 callsubr
          hintmask 11110011
          0 21 6 33 25 12 -19 -24 -33 -25 18 callsubr
          100 33 59 58 37 -22 31 -38 16 hvcurveto
          hintmask 11101101
          21 13 24 22 38 vvcurveto
          49 -37 34 -68 vhcurveto
          endchar
        </CharString>
        <CharString name="tilde">
          -7 583 -5 callsubr
          hintmask 01000000
          94 589 -20 callsubr
          hintmask 10000000
          -73 callsubr
          hintmask 00100000
          -52 callsubr
        </CharString>
        <CharString name="two">
          -15 0 94 461 87 hstem
          310 124 vstem
          78 507 rmoveto
          26 62 41 22 52 hhcurveto
          45 32 -33 -51 -68 -32 -44 -105 -121 hvcurveto
          -22 -24 -93 -95 -22 -25 -1 -94 rcurveline
          416 91 -271 hlineto
          92 101 rlineto
          101 111 61 79 87 vvcurveto
          132 -83 41 -94 -79 -86 -32 -24 -53 vhcurveto
          endchar
        </CharString>
        <CharString name="u">
          42 -6 84 -65 -21 506 24 callsubr
          hintmask 10111000
          -86 callsubr
          hintmask 01111000
          -66 callsubr
          endchar
        </CharString>
        <CharString name="uacute">
          -93 callsubr
          -98 40 -63 callsubr
        </CharString>
        <CharString name="ucircumflex">
          -93 callsubr
          -227 40 -77 callsubr
        </CharString>
        <CharString name="udieresis">
          -21 callsubr
          109 48 callsubr
          60 114 -65 -23 callsubr
          -72 114 hintmask 10111001
          -86 callsubr
          hintmask 01110101
          -66 callsubr
          -128 153 -99 callsubr
          hintmask 10111010
          -102 callsubr
        </CharString>
        <CharString name="ugrave">
          -93 callsubr
          -42 92 -53 callsubr
        </CharString>
        <CharString name="underscore">
          -7 -163 83 hstem
          -163 72 callsubr
        </CharString>
        <CharString name="uni00A0">
          -252 endchar
        </CharString>
        <CharString name="uni00AD">
          6 callsubr
        </CharString>
        <CharString name="uni00B2">
          -190 336 71 211 68 hstemhm
          36 233 -90 90 hintmask 11010000
          67 584 rmoveto
          3 5 43 31 36 hhcurveto
          20 8 -13 -22 -31 -19 -25 -50 -53 hvcurveto
          hintmask 11100000
          -34 -38 -40 -29 50 callsubr
          15 12 9 9 rrcurveto
          53 55 35 46 52 vvcurveto
          65 -43 29 -67 -46 -39 -18 -21 -39 vhcurveto
          endchar
        </CharString>
        <CharString name="uni00B3">
          -179 329 68 91 198 -68 68 hstemhm
          179 88 -72 87 hintmask 10110000
          163 58 callsubr
          -45 -33 -12 -18 -42 hvcurveto
          30 -63 rlineto
          18 41 22 7 18 hhcurveto
          15 10 53 callsubr
          hintmask 11001000
          0 21 6 33 24 12 -19 -24 -33 -24 18 callsubr
          99 33 59 58 37 -21 31 -38 16 hvcurveto
          hintmask 10110000
          20 13 24 22 38 vvcurveto
          49 -36 34 -68 vhcurveto
          endchar
        </CharString>
        <CharString name="uni00B5">
          47 -201 -21 216 84 420 -20 hstem
          65 10 callsubr
          vstem
          65 -222 rmoveto
          114 21 rlineto
          219 vlineto
          -15 22 27 -9 32 hhcurveto
          62 45 32 60 24 hvcurveto
          13 -62 23 -22 12 -10 89 36 rcurveline
          -4 9 -44 46 158 vvcurveto
          257 -114 -272 vlineto
          -88 -53 -60 -53 -46 -35 35 51 vhcurveto
          334 -114 vlineto
          endchar
        </CharString>
        <CharString name="uni00B9">
          -241 357 -21 341 -20 hstem
          113 82 vstem
          136 677 -43 callsubr
          endchar
        </CharString>
        <CharString name="uni2074">
          -178 357 -21 84 62 195 -20 hstem
          177 83 vstem
          260 594 81 callsubr
          -68 vlineto
          84 195 rlineto
          -83 76 callsubr
          -84 83 84 71 callsubr
        </CharString>
        <CharString name="uni2215">
          -16 callsubr
        </CharString>
        <CharString name="v">
          17 -5 80 423 -20 hstem
          60 114 190 115 vstem
          353 498 rmoveto
          1 11 -60 -55 vvcurveto
          -152 -28 -157 -96 -48 -18 38 56 vhcurveto
          329 -114 -332 vlineto
          -106 41 -65 105 187 86 105 296 vhcurveto
          51 -10 52 -1 vvcurveto
          endchar
        </CharString>
        <CharString name="w">
          264 -7 82 423 -20 hstem
          60 114 162 111 164 115 vstem
          600 498 rmoveto
          1 11 -54 -61 vvcurveto
          -152 -3 -157 -93 -48 -20 41 56 64 2 262 0 vhcurveto
          -113 -229 hlineto
          -139 -34 -55 -62 -48 -18 41 56 vhcurveto
          326 -114 -335 vlineto
          -106 42 -64 104 82 36 25 55 24 vhcurveto
          -54 24 43 -26 66 hhcurveto
          184 61 107 296 hvcurveto
          52 -10 51 -1 vvcurveto
          endchar
        </CharString>
        <CharString name="x">
          -27 21 -21 498 -20 hstem
          123 hmoveto
          75 128 39 74 39 -73 74 -129 rlineto
          130 hlineto
          -162 263 28 31 32 41 22 40 rlinecurve
          40 74 14 50 -1 vvcurveto
          -118 hlineto
          1 -13 -47 -32 -59 vhcurveto
          -12 -22 -16 -25 -16 -24 -13 28 -15 32 -8 13 -63 103 rcurveline
          -132 hlineto
          146 -234 -167 -264 rlineto
          endchar
        </CharString>
        <CharString name="y">
          7 callsubr
          hstemhm
          60 114 186 112 -74 104 hintmask 11111000
          -59 callsubr
          hintmask 11110100
          -55 callsubr
          hintmask 11111000
          61 callsubr
          endchar
        </CharString>
        <CharString name="yacute">
          7 callsubr
          81 -24 callsubr
          60 114 186 112 -74 104 hintmask 11111110
          -59 callsubr
          hintmask 11111101
          -55 callsubr
          hintmask 11111110
          61 callsubr
          -212 336 -63 callsubr
        </CharString>
        <CharString name="ydieresis">
          7 callsubr
          109 48 callsubr
          60 114 -69 -23 callsubr
          -69 112 -74 104 hintmask 1111100100000000
          -59 callsubr
          hintmask 1111100010000000
          -55 callsubr
          hintmask 1111010100000000
          61 callsubr
          -243 449 -99 callsubr
          hintmask 1111101000000000
          -102 callsubr
        </CharString>
        <CharString name="yen">
          85 21 -21 103 88 62 88 296 -20 hstem
          234 119 vstem
          114 341 rmoveto
          -88 120 -62 -120 -88 120 -103 119 103 122 88 -122 62 122 88 -82 vlineto
          168 296 rlineto
          -126 hlineto
          -140 -275 -136 275 rlineto
          -129 hlineto
          166 -296 rlineto
          endchar
        </CharString>
        <CharString name="z">
          -89 0 83 332 83 hstem
          393 hmoveto
          83 -137 vlineto
          -31 -29 -1 -2 -30 hvcurveto
          218 350 rlineto
          68 -346 vlineto
          14 -83 rlineto
          98 hlineto
          33 34 1 2 34 hvcurveto
          -221 -350 rlineto
          -68 vlineto
          endchar
        </CharString>
        <CharString name="zero">
          56 -6 87 474 87 hstem
          45 124 224 125 vstem
          288 642 rmoveto
          -173 -70 -131 -200 -203 65 -114 165 173 70 134 199 201 -65 114 -165 hvcurveto
          -13 -87 rmoveto
          101 17 -107 -133 -140 -22 -94 -84 -100 -18 108 133 142 23 91 83 hvcurveto
          endchar
        </CharString>
</ttFont>
